<svg width="12" height="18" viewBox="0 0 12 18" fill="none" xmlns="http://www.w3.org/2000/svg">
<path d="M4.8333 17.1667C4.56071 17.1672 4.29653 17.0723 4.08663 16.8983C3.9685 16.8004 3.87085 16.6801 3.79927 16.5444C3.72769 16.4086 3.6836 16.2601 3.66951 16.1073C3.65542 15.9545 3.67162 15.8004 3.71717 15.6539C3.76272 15.5073 3.83673 15.3712 3.93497 15.2533L9.16163 9L4.12164 2.735C4.02472 2.61567 3.95235 2.47835 3.90868 2.33096C3.86501 2.18356 3.8509 2.02899 3.86717 1.87612C3.88343 1.72326 3.92974 1.57511 4.00344 1.4402C4.07715 1.30529 4.17679 1.18628 4.29663 1.09C4.41734 0.983793 4.55871 0.90368 4.71184 0.854693C4.86498 0.805706 5.0266 0.788902 5.18654 0.805334C5.34648 0.821766 5.5013 0.871081 5.64128 0.950183C5.78126 1.02929 5.90338 1.13647 5.99997 1.265L11.635 8.265C11.8066 8.47376 11.9004 8.73561 11.9004 9.00583C11.9004 9.27606 11.8066 9.53791 11.635 9.74667L5.80163 16.7467C5.6846 16.8879 5.53593 16.9995 5.36768 17.0724C5.19944 17.1454 5.01636 17.1777 4.8333 17.1667Z" fill="white"/>
<path d="M0.99445 14.8318C0.801374 14.8322 0.614261 14.7645 0.465593 14.6406C0.381919 14.5708 0.312753 14.485 0.262055 14.3883C0.211358 14.2916 0.180125 14.1857 0.170146 14.0768C0.160168 13.9679 0.171639 13.8581 0.203903 13.7536C0.236167 13.6492 0.288589 13.5522 0.358169 13.4682L4.06017 9.01139L0.490384 4.54629C0.421743 4.46124 0.370484 4.36338 0.339552 4.25833C0.308621 4.15328 0.298627 4.04312 0.310146 3.93417C0.321664 3.82522 0.354467 3.71963 0.40667 3.62348C0.458873 3.52733 0.529447 3.44251 0.614334 3.37389C0.699832 3.2982 0.799956 3.2411 0.908423 3.20619C1.01689 3.17128 1.13136 3.1593 1.24464 3.17101C1.35793 3.18272 1.46759 3.21787 1.56673 3.27425C1.66588 3.33062 1.75237 3.40701 1.82079 3.49862L5.81201 8.48755C5.93355 8.63634 5.99999 8.82296 5.99999 9.01555C5.99999 9.20814 5.93355 9.39477 5.81201 9.54355L1.68031 14.5325C1.59742 14.6331 1.49211 14.7126 1.37295 14.7647C1.25378 14.8167 1.12411 14.8397 0.99445 14.8318Z" fill="white"/>
</svg>
